<?xml version="1.0" encoding="utf-8"?>
<svg width="100" height="100" viewBox="41.5758 26.0163 103 103" xmlns="http://www.w3.org/2000/svg">
  <defs>
    <style type="text/css">
   
    .fil1 {fill:#3079ED}
    .fil0 {fill:#F7931A}
    .fil2 {fill:#3079ED;fill-rule:nonzero}
   
  </style>
    <style>
        .cls-1 {
          fill: #FF9900;
        }
        .cls-2 {
          fill: #CB2C30;
        }
      </style>
  </defs>
  <path d="M 69.715 49.2 L 55.554 43.864 L 44.06 63.977 L 55.964 73.008 L 56.169 82.859 L 45.086 92.3 L 57.401 112.824 L 70.946 106.872 L 79.361 112.003 L 82.029 126.369 L 105.837 126.164 L 106.863 112.413 L 115.688 106.051 L 129.849 111.387 L 141.753 91.069 L 129.644 81.833 L 129.233 71.777 L 140.932 61.925 L 128.002 41.606 L 114.867 48.174 L 106.041 43.043 L 103.784 28.472 L 80.182 28.882 L 78.54 43.659 L 69.715 49.2 Z" style="stroke-linejoin: round; fill: rgb(247, 147, 26); stroke: rgb(177, 97, 0);" transform="matrix(0.969658, -0.244465, 0.244465, 0.969658, -16.107648, 25.06148)"/>
  <path d="M 109.855 71.854 C 110.632 66.106 106.685 63.017 101.285 60.957 L 103.036 53.17 L 98.766 51.988 L 97.062 59.571 C 95.936 59.258 94.784 58.967 93.637 58.677 L 95.353 51.04 L 91.078 49.86 L 89.327 57.649 C 88.4 57.415 87.485 57.179 86.599 56.936 L 86.604 56.91 L 80.711 55.276 L 79.573 60.339 C 79.573 60.339 82.744 61.15 82.676 61.198 C 84.41 61.677 84.719 62.95 84.668 63.952 L 82.676 72.827 C 82.794 72.86 82.95 72.908 83.117 72.983 C 82.973 72.941 82.824 72.903 82.667 72.86 L 79.874 85.286 C 79.658 85.871 79.121 86.745 77.912 86.415 C 77.952 86.482 74.807 85.552 74.807 85.552 L 72.684 90.978 L 78.244 92.517 C 79.277 92.806 80.293 93.109 81.292 93.389 L 79.524 101.265 L 83.792 102.446 L 85.546 94.654 C 86.709 95.008 87.845 95.332 88.952 95.637 L 87.206 103.393 L 91.479 104.57 L 93.248 96.71 C 100.54 98.242 106.02 97.623 108.329 90.311 C 110.151 84.534 108.303 81.156 104.604 78.94 C 104.536 78.899 104.466 78.857 104.396 78.816 C 107.191 78.103 109.291 76.063 109.855 71.854 Z M 100.093 87.045 C 98.772 92.931 89.832 89.752 86.934 88.949 L 89.285 78.515 C 92.177 79.32 101.468 80.908 100.093 87.045 Z M 101.415 71.772 C 100.207 77.127 92.77 74.403 90.354 73.74 L 92.484 64.276 C 94.895 64.941 102.668 66.185 101.415 71.772 Z" style="fill-rule: evenodd; fill: rgb(255, 255, 255); stroke-linejoin: round;" transform="matrix(0.999921, 0.012548, -0.012548, 0.999921, 0.976109, -1.144044)"/>
</svg>
